<?xml version="1.0" encoding="UTF-8"?>
<svg width="159px" height="30px" viewBox="0 0 159 30" version="1.1" xmlns="http://www.w3.org/2000/svg" xmlns:xlink="http://www.w3.org/1999/xlink">
    <!-- Generator: Sketch 52.2 (67145) - http://www.bohemiancoding.com/sketch -->
    <title>Artboard</title>
    <desc>Created with Sketch.</desc>
    <g id="Artboard" stroke="none" stroke-width="1" fill="none" fill-rule="evenodd">
        <path d="M28.8740617,13.7411908 L28.8740617,28.0011908 C28.8740617,28.8571908 28.1800617,29.5510908 27.3240617,29.5510908 L16.9883617,29.5510908 L6.65266168,29.5510908 C5.79686168,29.5510908 5.10266168,28.8571908 5.10266168,28.0011908 L5.10266168,13.7411908 L2.28586168,13.7411908 C1.43006168,13.7411908 0.735861678,13.0469908 0.735861678,12.1908908 C0.735861678,11.6440908 1.01936168,11.1630908 1.44736168,10.8872908 L16.0801617,0.294490844 C16.6447617,-0.114609156 17.3925617,-0.0871091563 17.9214617,0.312590844 L32.5990617,10.9376908 C33.2912617,11.4391908 33.4457617,12.4071908 32.9439617,13.0990908 C32.6415617,13.5166908 32.1695617,13.7383908 31.6905617,13.7388908 L28.8740617,13.7411908 Z M16.9883617,22.2660908 C17.4208617,22.2660908 17.8047617,22.1543908 18.0728617,21.9755908 L18.0737617,21.9743908 C18.2806617,21.8366908 18.4093617,21.6639908 18.4093617,21.4907908 C18.4093617,21.3178908 18.2809617,21.1455908 18.0740617,21.0066908 C17.8041617,20.8269908 17.4200617,20.7157908 16.9883617,20.7157908 C16.5560617,20.7157908 16.1722617,20.8277908 15.9040617,21.0066908 L15.9029617,21.0074908 C15.6957617,21.1455908 15.5673617,21.3178908 15.5673617,21.4907908 C15.5673617,21.6639908 15.6960617,21.8366908 15.9029617,21.9743908 L15.9191617,21.9854908 C16.1866617,22.1589908 16.5634617,22.2660908 16.9883617,22.2660908 Z M20.2195617,24.0944908 C21.0957617,23.4373908 21.6382617,22.5172908 21.6382617,21.4907908 C21.6382617,20.4646908 21.0960617,19.5445908 20.2198617,18.8871908 C19.7467617,18.5322908 19.1738617,18.2541908 18.5380617,18.0798908 L18.5380617,9.41039084 L18.5363617,7.02389084 C18.5363617,6.91989084 18.5048617,6.81419084 18.4393617,6.72319084 C18.2735617,6.49239084 17.9515617,6.44029084 17.7208617,6.60609084 L12.5883617,10.2973908 C12.4387617,10.3877908 12.3383617,10.5521908 12.3383617,10.7398908 L12.3400617,13.1260908 C12.3400617,13.2303908 12.3715617,13.3357908 12.4370617,13.4267908 C12.6028617,13.6575908 12.9248617,13.7096908 13.1556617,13.5438908 L15.4386617,11.9020908 L15.4386617,18.0798908 C14.8028617,18.2541908 14.2302617,18.5322908 13.7571617,18.8871908 C12.8809617,19.5442908 12.3386617,20.4643908 12.3386617,21.4907908 C12.3386617,22.5172908 12.8809617,23.4373908 13.7571617,24.0944908 C14.5913617,24.7202908 15.7345617,25.1075908 16.9883617,25.1075908 C18.2420617,25.1075908 19.3853617,24.7202908 20.2195617,24.0944908 Z" id="Fill-55" fill="#DF1228"/>
        <path d="M60,20.1238011 C60,20.953241 59.8696357,21.7017077 59.6087598,22.3684871 C59.3453768,23.0404077 58.9507447,23.6266423 58.4248636,24.1273338 L58.4236838,24.1286191 C57.7572629,24.7564114 56.8936735,25.2263988 55.8335054,25.5381528 C54.7871995,25.8461937 53.5510987,26 52.1256452,26 L45.2611709,26 C45.1169444,26 45,25.8867518 45,25.7470837 L45,7.25305914 C45,7.11339106 45.1169444,7 45.2611709,7 L51.9451408,7 C53.0151895,7 53.9632798,7.10082379 54.7889692,7.3016145 C55.6258664,7.50526142 56.3377083,7.81258832 56.9242,8.22345239 C56.9305412,8.22745107 56.9362926,8.23187818 56.941749,8.23673371 C57.5717446,8.68487117 58.0449786,9.23340399 58.3617461,9.88190373 C58.6795458,10.5332597 58.8388143,11.2814407 58.8388143,12.1265897 C58.8388143,12.64399 58.7634567,13.1261162 58.612594,13.5731112 C58.4608465,14.0223911 58.2338888,14.4336836 57.9312786,14.8069887 C57.926707,14.8125583 57.9215455,14.8178422 57.9165315,14.8231262 C57.7451703,15.0307718 57.552131,15.2209946 57.3375608,15.3943658 C57.2502581,15.4647711 57.1600059,15.5318917 57.0663619,15.596299 C57.4111488,15.7428219 57.7276213,15.917764 58.0156319,16.1216966 C58.4387259,16.4213117 58.8012093,16.783192 59.1017549,17.2066234 C59.4014157,17.6289122 59.6263088,18.0839046 59.7759917,18.5721716 C59.9252323,19.0587249 60,19.5759824 60,20.1238011 Z M116.098252,26 L103.901748,26 L100.257831,26 C100.115334,26 100,25.8867543 100,25.746661 C100,25.7389494 100.000436,25.7316663 100.001307,25.7243831 L100.001307,22.4228355 C100.001307,22.2834562 100.116206,22.1706389 100.257831,22.1706389 L100.257831,22.1693537 L102.008904,22.1693537 L108.364769,7.15637331 C108.405877,7.05912196 108.501456,7.00042842 108.601974,7.00042842 L108.601974,7 L111.398171,7 C111.511036,7 111.606906,7.07168895 111.641477,7.17093959 L117.991532,22.1693537 L119.742314,22.1693537 C119.884375,22.1693537 120,22.2831706 120,22.4228355 C120,22.4304043 119.999274,22.4376874 119.998838,22.4449706 L119.999274,25.746661 C119.999274,25.8858975 119.88394,25.999286 119.742314,25.999286 L119.742314,26 L116.098252,26 Z M107,22 L114,22 C112.862377,19.1150219 112.398233,17.9139813 111.382053,15.283761 C111.128632,14.6272163 110.840552,13.8817572 110.499792,13 C110.104549,14.0223757 109.780702,14.8599545 109.503575,15.5780981 C108.477135,18.2347977 108.083833,19.2536893 107,22 Z M138.741555,26 L135.245254,26 C135.102176,26 134.986371,25.8867518 134.986371,25.7470837 L134.986371,13.4778569 L124.957039,25.9033177 C124.906138,25.9660112 124.83088,25.9988575 124.754746,25.9988575 L124.754746,26 L121.258445,26 C121.115804,26 121,25.8867518 121,25.7470837 L121,7.25305914 C121,7.11339106 121.115804,7 121.258445,7 L124.754746,7 C124.897824,7 125.013629,7.11339106 125.013629,7.25305914 L125.013629,19.5225715 L135.043107,7.09725354 C135.093862,7.03413157 135.16912,7.00128529 135.245254,7.00128529 L135.245254,7 L138.741555,7 C138.884196,7 139,7.11339106 139,7.25305914 L139,25.7470837 C139,25.8867518 138.884196,26 138.741555,26 Z M158.92101,11.1811878 L156.516287,13.5395795 C156.414875,13.6387311 156.253995,13.6345998 156.157467,13.5304316 C155.359532,12.6671339 154.515775,12.0210255 153.625334,11.5918111 C152.740494,11.1656953 151.805237,10.9523423 150.819417,10.9523423 C149.98672,10.9523423 149.22254,11.0979712 148.526304,11.3877536 C147.829924,11.6776835 147.198902,12.1126522 146.632806,12.6919218 C146.067284,13.2707488 145.642964,13.9172999 145.360419,14.63128 C145.077442,15.3455551 144.936098,16.1297676 144.936098,16.9825895 C144.936098,17.5823681 144.998439,18.1461453 145.123839,18.6727407 C145.248521,19.1950572 145.436118,19.6856511 145.686631,20.1428993 C145.937,20.601623 146.23865,21.0107709 146.591293,21.3696053 C146.945516,21.7296201 147.351594,22.0405017 147.808809,22.3022501 C148.268035,22.5641461 148.753403,22.7597934 149.264053,22.8903726 C149.774703,23.0212468 150.312932,23.0860199 150.878023,23.0860199 C151.363104,23.0860199 151.82391,23.0408705 152.261302,22.9496865 C152.69812,22.8585024 153.115545,22.7212837 153.513723,22.5377352 L153.513723,22.5372925 C153.910321,22.3533014 154.330188,22.0922907 154.771459,21.7539653 C155.216177,21.4131317 155.680286,20.9964589 156.162351,20.5029141 C156.261752,20.4016968 156.422201,20.4021394 156.521171,20.504242 L156.524044,20.5071929 L158.857951,23.003246 C158.954766,23.1069716 158.951606,23.2722243 158.850625,23.3721136 L158.850194,23.3725563 C158.174211,24.0492069 157.515897,24.6227222 156.875825,25.0932497 C156.230438,25.5674659 155.601714,25.9376614 154.990227,26.2039838 C154.380176,26.4695684 153.727894,26.6687569 153.032807,26.8012541 C152.337864,26.9338989 151.602844,27 150.827604,27 C149.395486,27 148.088481,26.7656953 146.908169,26.2960531 C145.726564,25.8264109 144.675961,25.1215788 143.756935,24.1822944 C142.83834,23.2407968 142.148567,22.1675397 141.68848,20.9613427 C141.230116,19.7601623 141,18.4292881 141,16.9696053 C141,16.0232387 141.104285,15.1280708 141.313572,14.2845444 C141.52286,13.4388049 141.838012,12.6463298 142.258167,11.9063814 C142.261039,11.9013648 142.263912,11.8967909 142.267072,11.8922169 C142.683636,11.1586131 143.189833,10.4968646 143.78552,9.90682405 C144.383648,9.31457027 145.072128,8.79461453 145.852251,8.34636665 L145.851964,8.34636665 C146.627922,7.89885651 147.436199,7.56244928 148.27536,7.33744006 C149.115383,7.11243084 149.983129,7 150.878023,7 C151.641484,7 152.390293,7.08233124 153.125744,7.2484692 C153.858609,7.41401697 154.578547,7.66337145 155.286131,7.99712283 C155.993427,8.32792328 156.651024,8.72939875 157.25892,9.19948359 C157.867247,9.67001107 158.427597,10.2116562 158.938965,10.822796 C159.027305,10.9285872 159.0184,11.0861675 158.92101,11.1811878 Z M97.7427849,26 L93.8980849,26 C93.7809616,26 93.6824617,25.9235967 93.6505983,25.8187742 L91.7894289,21.2264364 L85.2111728,21.2264364 L83.3408372,25.8401957 C83.3008261,25.9388774 83.2043631,25.9988575 83.1023712,25.999286 L83.1023712,26 L79.2573803,26 C79.1150864,26 79,25.8867518 79,25.7470837 C79,25.7069541 79.0094572,25.6689667 79.0264801,25.6352635 L86.8621022,7.15637684 C86.9034227,7.0591233 86.9990128,7.00042843 87.0996952,7.00042843 L87.0996952,7 L89.90047,7 C90.0135194,7 90.109546,7.07169057 90.1446102,7.17094345 L97.9802324,25.6502586 C98.0347929,25.7790731 97.9725212,25.9267385 97.8412849,25.9802922 C97.8091305,25.9935736 97.7756667,25.9997144 97.7427849,25.9997144 L97.7427849,26 Z M90,17 L88.5001238,13 L87,17 L90,17 Z M77.7427849,26 L73.8980849,26 C73.7809616,26 73.6824617,25.9235967 73.6505983,25.8187742 C71.2400405,19.8715989 70.8482231,18.8809266 69.4261569,15.2874012 C69.1601925,14.6146237 68.8578543,13.8507336 68.5002281,12.9471754 C68.0854224,13.9948288 67.7459831,14.8531163 67.4547025,15.5890157 C66.0071748,19.2473768 65.7596881,19.8735982 63.3408372,25.8401957 C63.3008261,25.9388774 63.2043631,25.9988575 63.1023712,25.999286 L63.1023712,26 L59.2573803,26 C59.1150864,26 59,25.8867518 59,25.7470837 C59,25.7069541 59.0094572,25.6689667 59.0264801,25.6352635 L66.8621022,7.15637684 C66.9034227,7.0591233 66.9990128,7.00042843 67.0996952,7.00042843 L67.0996952,7 L69.90047,7 C70.0135194,7 70.109546,7.07169057 70.1446102,7.17094345 L77.9802324,25.6502586 C78.0347929,25.7790731 77.9725212,25.9267385 77.8412849,25.9802922 C77.8091305,25.9935736 77.7758122,25.9997144 77.7427849,25.9997144 L77.7427849,26 Z M56,20.0356913 C56,19.7818564 55.9646086,19.5522671 55.8945756,19.3471945 C55.8252924,19.1460499 55.7219675,18.9663066 55.5846009,18.8078291 L55.5829513,18.8057973 C55.3589057,18.5412617 55.0541797,18.3416071 54.6689233,18.2084589 C54.2685205,18.0694863 53.7770898,18 53.1952312,18 L49,18 L49,22 L53.1952312,22 C53.4962081,22 53.7775397,21.9776506 54.0389263,21.9336291 C54.2991131,21.8894721 54.5435537,21.823372 54.7710485,21.7350581 L54.7845452,21.7304527 C55.1909465,21.5688598 55.4949227,21.3491585 55.6960238,21.0716197 C55.8987746,20.792049 56,20.4465138 56,20.0356913 Z M55,12.4999349 C55,12.1832415 54.9285622,11.9191135 54.7861506,11.7084616 C54.6476046,11.5037949 54.436693,11.3433664 54.1527975,11.2271761 C54.1470763,11.2245739 54.141355,11.2219716 54.1356338,11.2194995 C53.9550293,11.1485883 53.7450455,11.0947218 53.5066103,11.0582903 C53.2554957,11.0195168 52.9697446,11 52.649357,11 L49,11 L49,14 L52.649357,14 C53.0332964,14 53.3725485,13.9660407 53.6666495,13.8978618 C53.9533284,13.8317648 54.2001134,13.7333998 54.4070046,13.6027671 C54.6041543,13.4781194 54.7519779,13.3265386 54.8497023,13.1476341 L54.8504755,13.1468535 L54.8497023,13.1465932 C54.9500554,12.9636553 55,12.7477989 55,12.4999349 Z" id="Fill-54" fill="#000000"/>
    </g>
</svg>